# Blender v3.2.1 OBJ File: 'ormbunke.blend'
# www.blender.org
mtllib ormbunke.mtl
o Plane.010
v -0.652347 -0.023617 0.014868
v 0.652003 0.030858 -0.015499
v -0.678845 -0.044278 -1.147574
v 0.621288 0.099065 -1.185694
v -0.678773 0.205688 -0.663738
v 0.625352 0.264895 -0.694518
v -0.671792 0.222343 -0.335892
v 0.634600 0.233796 -0.362505
v 0.620148 0.210785 -1.019096
v -0.681059 0.090088 -0.982951
v -0.000358 0.007542 -0.000658
v -0.033682 0.130723 -1.175650
v -0.030366 0.312306 -0.685847
v -0.021279 0.284609 -0.354131
v -0.034088 0.226977 -1.007702
v -0.534510 0.010286 0.000000
v 0.534510 0.010286 -0.000000
v -0.534510 0.121612 -0.944885
v 0.534510 0.074661 -0.944885
v -0.534510 0.483039 -0.534510
v 0.534510 0.235062 -0.534510
v -0.534510 0.245634 -0.267255
v 0.534510 0.245634 -0.267255
v 0.534510 0.169057 -0.801765
v -0.534510 0.319968 -0.801765
v 0.000000 0.012476 0.000000
v 0.000000 0.353692 -0.944885
v 0.000000 0.514093 -0.534510
v 0.000000 0.448089 -0.267255
v -0.000000 0.448089 -0.801765
v 0.534510 0.010286 0.000000
v -0.534510 0.010286 -0.000000
v 0.534510 0.123482 0.944885
v -0.400432 0.143493 0.926563
v 0.530564 0.491498 0.535293
v -0.508340 0.474291 0.528042
v 0.534510 0.261362 0.267255
v -0.534510 0.345960 0.267255
v -0.407057 0.243109 0.775912
v 0.534510 0.310699 0.801765
v 0.000000 0.012476 0.000000
v -0.017085 0.357743 0.943426
v 0.089785 0.504551 0.519460
v 0.025628 0.445145 0.263384
v 0.000727 0.452326 0.793300
v -0.079990 -0.006510 0.528554
v 0.078598 0.027193 -0.528100
v -1.022966 0.092838 0.390220
v -0.858013 0.031985 -0.668509
v -0.637527 0.407866 0.458162
v -0.480518 0.465032 -0.597977
v -0.357967 0.188920 0.493100
v -0.205651 0.315811 -0.561509
v -0.727041 0.193120 -0.643689
v -0.890596 0.233221 0.414585
v -0.000838 0.012445 0.000273
v -0.956021 0.293175 -0.134079
v -0.561891 0.479076 -0.068972
v -0.293772 0.430103 -0.030303
v -0.821149 0.396369 -0.110531
v 0.232408 0.015164 -0.481209
v -0.233108 0.005594 0.481081
v 1.079712 0.110795 -0.070357
v 0.613685 0.116399 0.891840
v 0.705361 0.257840 -0.249963
v 0.231139 0.506541 0.710728
v 0.464735 0.259605 -0.366348
v -0.003503 0.330779 0.595442
v 0.477481 0.335210 0.828164
v 0.947858 0.200578 -0.133233
v -0.000421 0.012491 -0.000077
v 0.837540 0.385284 0.409059
v 0.463189 0.532330 0.229453
v 0.225147 0.457429 0.113542
v 0.705686 0.475067 0.346182
v 0.373548 -0.010520 0.267655
v -0.372892 0.026373 -0.267514
v -0.132893 0.190942 0.882324
v -0.792172 0.331669 0.424672
v 0.123465 0.420549 0.645222
v -0.620777 0.510524 0.110526
v 0.260626 0.497638 0.459044
v -0.491077 0.407459 -0.077256
v -0.740485 0.460086 0.307933
v -0.029598 0.335686 0.813231
v 0.000517 0.012486 0.000111
v -0.528242 0.353798 0.638535
v -0.233555 0.608657 0.398131
v -0.105147 0.525055 0.187633
v -0.396023 0.527396 0.534415
v -0.398724 0.034498 -0.225623
v 0.399670 -0.018633 0.225774
v 0.008441 0.153355 -0.932159
v 0.815222 0.240832 -0.479427
v -0.144543 0.501599 -0.621503
v 0.653923 0.449681 -0.170095
v -0.258616 0.486282 -0.421489
v 0.537843 0.400704 0.029599
v 0.764294 0.402946 -0.370698
v -0.040249 0.352988 -0.823074
v 0.000745 0.012495 0.000119
v 0.405373 0.088829 -0.706822
v 0.246399 0.336650 -0.397120
v 0.136107 0.384709 -0.196504
v 0.352917 0.225320 -0.598336
v 0.052654 -0.003545 -0.456794
v -0.052998 0.015517 0.456607
v 0.855747 0.163162 -0.366161
v 0.723129 0.326734 0.452930
v 0.488634 0.421094 -0.572414
v 0.458564 0.505693 0.374684
v 0.265820 0.436213 -0.487083
v 0.186375 0.356475 0.440741
v 0.638522 0.427906 0.447073
v 0.724303 0.384670 -0.433536
v -0.000358 0.012470 -0.000195
v 0.969846 0.364623 -0.032166
v 0.496334 0.607786 -0.086141
v 0.218690 0.522548 -0.005619
v 0.786998 0.515846 -0.033834
v -0.399319 0.001786 0.228118
v 0.398989 0.010196 -0.228268
v -0.806091 0.116288 -0.478987
v -0.011827 0.271763 -0.937212
v -0.640392 0.465371 -0.176869
v 0.157701 0.481611 -0.633353
v -0.525831 0.450875 0.022908
v 0.274435 0.388090 -0.432588
v 0.044844 0.434124 -0.832355
v -0.750450 0.316124 -0.374598
v -0.000343 0.012481 -0.000156
v -0.413661 0.365022 -0.710237
v -0.244850 0.600941 -0.406704
v -0.128271 0.513048 -0.206010
v -0.356286 0.501789 -0.605060
v 0.382826 0.066272 0.528425
v -0.383026 -0.056774 -0.529391
v -0.594988 0.217307 1.110358
v -1.285253 0.174840 0.186387
v -0.155240 0.347584 0.885083
v -0.921762 0.256340 -0.175970
v 0.110100 0.382242 0.688913
v -0.654148 0.183066 -0.361156
v -1.170384 0.240726 0.040688
v -0.433252 0.304323 1.050393
v -0.000158 0.007480 -0.000761
v -1.027984 0.242503 0.590348
v -0.536593 0.391134 0.375483
v -0.261599 0.326276 0.157369
v -0.813040 0.344871 0.493561
v 0.378917 -0.029559 -0.537033
v -0.379258 0.036794 0.536378
v 1.314491 0.160035 0.112446
v 0.587008 0.304805 1.047294
v 0.998758 0.264841 -0.396309
v 0.311192 0.381170 0.768970
v 0.663166 0.257500 -0.439047
v -0.071984 0.267441 0.671589
v 0.485498 0.357335 0.981603
v 1.196553 0.276605 -0.063660
v -0.000354 0.007536 -0.000683
v 1.250761 0.211813 0.662413
v 0.674004 0.414080 0.215220
v 0.273900 0.339760 0.131287
v 0.999763 0.391452 0.477155
vt 0.508048 0.744645
vt 0.988337 0.744169
vt 0.988337 0.988337
vt 0.426023 0.985953
vt 0.519227 0.253428
vt 0.988337 0.255831
vt 0.988337 0.500000
vt 0.515679 0.500477
vt 0.509614 0.011663
vt 0.988337 0.011663
vt 0.011663 0.500000
vt 0.011663 0.744169
vt 0.011663 0.011663
vt 0.011663 0.255831
vt 0.011663 0.988337
vt 0.508048 0.744645
vt 0.988337 0.744169
vt 0.988337 0.988337
vt 0.426023 0.985953
vt 0.519227 0.253428
vt 0.988337 0.255831
vt 0.988337 0.500000
vt 0.515679 0.500477
vt 0.509614 0.011663
vt 0.988337 0.011663
vt 0.011663 0.500000
vt 0.011663 0.744169
vt 0.011663 0.011663
vt 0.011663 0.255831
vt 0.011663 0.988337
vt 0.508048 0.744645
vt 0.988337 0.744169
vt 0.988337 0.988337
vt 0.426023 0.985953
vt 0.519227 0.253428
vt 0.988337 0.255831
vt 0.988337 0.500000
vt 0.515679 0.500477
vt 0.509614 0.011663
vt 0.988337 0.011663
vt 0.011663 0.500000
vt 0.011663 0.744169
vt 0.011663 0.011663
vt 0.011663 0.255831
vt 0.011663 0.988337
vt 0.508048 0.744645
vt 0.988337 0.744169
vt 0.988337 0.988337
vt 0.426023 0.985953
vt 0.519227 0.253428
vt 0.988337 0.255831
vt 0.988337 0.500000
vt 0.515679 0.500477
vt 0.509614 0.011663
vt 0.988337 0.011663
vt 0.011663 0.500000
vt 0.011663 0.744169
vt 0.011663 0.011663
vt 0.011663 0.255831
vt 0.011663 0.988337
vt 0.508048 0.744645
vt 0.988337 0.744169
vt 0.988337 0.988337
vt 0.426023 0.985953
vt 0.519227 0.253428
vt 0.988337 0.255831
vt 0.988337 0.500000
vt 0.515679 0.500477
vt 0.509614 0.011663
vt 0.988337 0.011663
vt 0.011663 0.500000
vt 0.011663 0.744169
vt 0.011663 0.011663
vt 0.011663 0.255831
vt 0.011663 0.988337
vt 0.508048 0.744645
vt 0.988337 0.744169
vt 0.988337 0.988337
vt 0.426023 0.985953
vt 0.519227 0.253428
vt 0.988337 0.255831
vt 0.988337 0.500000
vt 0.515679 0.500477
vt 0.509614 0.011663
vt 0.988337 0.011663
vt 0.011663 0.500000
vt 0.011663 0.744169
vt 0.011663 0.011663
vt 0.011663 0.255831
vt 0.011663 0.988337
vt 0.508048 0.744645
vt 0.988337 0.744169
vt 0.988337 0.988337
vt 0.426023 0.985953
vt 0.519227 0.253428
vt 0.988337 0.255831
vt 0.988337 0.500000
vt 0.515679 0.500477
vt 0.509614 0.011663
vt 0.988337 0.011663
vt 0.011663 0.500000
vt 0.011663 0.744169
vt 0.011663 0.011663
vt 0.011663 0.255831
vt 0.011663 0.988337
vt 0.508048 0.744645
vt 0.988337 0.744169
vt 0.988337 0.988337
vt 0.426023 0.985953
vt 0.519227 0.253428
vt 0.988337 0.255831
vt 0.988337 0.500000
vt 0.515679 0.500477
vt 0.509614 0.011663
vt 0.988337 0.011663
vt 0.011663 0.500000
vt 0.011663 0.744169
vt 0.011663 0.011663
vt 0.011663 0.255831
vt 0.011663 0.988337
vt 0.508048 0.744645
vt 0.988337 0.744169
vt 0.988337 0.988337
vt 0.426023 0.985953
vt 0.519227 0.253428
vt 0.988337 0.255831
vt 0.988337 0.500000
vt 0.515679 0.500477
vt 0.509614 0.011663
vt 0.988337 0.011663
vt 0.011663 0.500000
vt 0.011663 0.744169
vt 0.011663 0.011663
vt 0.011663 0.255831
vt 0.011663 0.988337
vt 0.508048 0.744645
vt 0.988337 0.744169
vt 0.988337 0.988337
vt 0.426023 0.985953
vt 0.519227 0.253428
vt 0.988337 0.255831
vt 0.988337 0.500000
vt 0.515679 0.500477
vt 0.509614 0.011663
vt 0.988337 0.011663
vt 0.011663 0.500000
vt 0.011663 0.744169
vt 0.011663 0.011663
vt 0.011663 0.255831
vt 0.011663 0.988337
vt 0.508048 0.744645
vt 0.988337 0.744169
vt 0.988337 0.988337
vt 0.426023 0.985953
vt 0.519227 0.253428
vt 0.988337 0.255831
vt 0.988337 0.500000
vt 0.515679 0.500477
vt 0.509614 0.011663
vt 0.988337 0.011663
vt 0.011663 0.500000
vt 0.011663 0.744169
vt 0.011663 0.011663
vt 0.011663 0.255831
vt 0.011663 0.988337
vn -0.0852 0.9116 -0.4022
vn 0.0336 0.9256 -0.3770
vn 0.0224 0.8491 -0.5278
vn -0.0996 0.8312 -0.5470
vn -0.0179 0.9457 0.3246
vn 0.0525 0.9378 0.3433
vn 0.0606 0.9962 -0.0628
vn -0.0498 0.9936 -0.1014
vn -0.0073 0.8138 0.5811
vn 0.0274 0.8253 0.5640
vn -0.1599 0.9772 -0.1393
vn -0.2045 0.8767 -0.4353
vn -0.0420 0.8009 0.5973
vn -0.0890 0.9407 0.3274
vn -0.2163 0.8015 -0.5575
vn 0.1300 0.8723 -0.4714
vn 0.4280 0.8199 -0.3802
vn 0.3995 0.7653 -0.5047
vn 0.0936 0.7666 -0.6353
vn 0.0686 0.8357 0.5449
vn 0.2769 0.8213 0.4988
vn 0.4367 0.8971 -0.0669
vn 0.1401 0.9901 -0.0051
vn -0.0000 0.6231 0.7822
vn 0.1184 0.6187 0.7766
vn -0.1794 0.9823 0.0540
vn -0.1907 0.7999 -0.5690
vn -0.1184 0.6187 0.7766
vn -0.1501 0.7319 0.6647
vn -0.2293 0.6805 -0.6960
vn -0.0706 0.8422 0.5345
vn -0.3286 0.8145 0.4781
vn -0.4305 0.7655 0.4782
vn -0.1247 0.7807 0.6124
vn 0.0238 0.7936 -0.6079
vn -0.0837 0.7754 -0.6259
vn -0.1665 0.9856 0.0310
vn 0.0333 0.9994 0.0006
vn 0.0252 0.5893 -0.8075
vn -0.0556 0.5687 -0.8207
vn 0.1786 0.9832 -0.0368
vn 0.1927 0.7981 0.5709
vn 0.1111 0.6067 -0.7871
vn 0.1461 0.7246 -0.6735
vn 0.2341 0.6939 0.6810
vn -0.5837 0.8069 -0.0906
vn -0.5761 0.7410 -0.3451
vn -0.6059 0.6838 -0.4065
vn -0.6703 0.7296 -0.1354
vn 0.5490 0.8230 0.1461
vn 0.6013 0.7990 0.0084
vn -0.1004 0.9796 -0.1743
vn -0.0728 0.9967 0.0366
vn 0.7355 0.6577 0.1624
vn 0.7701 0.6349 0.0621
vn -0.0413 0.9686 0.2452
vn -0.5876 0.7954 0.1482
vn 0.6923 0.6728 0.2608
vn 0.5726 0.7683 0.2861
vn -0.6805 0.7152 0.1593
vn 0.4648 0.8808 0.0906
vn 0.4255 0.7948 0.4327
vn 0.5217 0.6699 0.5283
vn 0.5990 0.7745 0.2032
vn -0.4664 0.8218 -0.3274
vn -0.6496 0.7332 -0.2011
vn -0.0846 0.9888 0.1228
vn 0.0686 0.9889 -0.1316
vn -0.7280 0.5739 -0.3751
vn -0.7806 0.5495 -0.2977
vn 0.2205 0.9025 -0.3700
vn 0.5016 0.8353 -0.2249
vn -0.6685 0.5929 -0.4490
vn -0.3562 0.8063 -0.4722
vn 0.6031 0.7845 -0.1445
vn -0.2496 0.8365 0.4877
vn -0.4080 0.8474 0.3398
vn -0.4887 0.6890 0.5352
vn -0.3798 0.6555 0.6527
vn 0.3509 0.7922 -0.4993
vn 0.2975 0.7021 -0.6469
vn -0.1302 0.9779 -0.1636
vn 0.0134 0.9931 0.1166
vn 0.5175 0.4166 -0.7474
vn 0.4742 0.4409 -0.7621
vn 0.1332 0.9307 0.3405
vn -0.1022 0.7362 0.6690
vn 0.5597 0.3911 -0.7306
vn 0.4545 0.8137 -0.3625
vn -0.2458 0.5972 0.7635
vn 0.2908 0.7602 -0.5810
vn 0.0224 0.8120 -0.5833
vn 0.1763 0.6182 -0.7660
vn 0.3595 0.6022 -0.7128
vn -0.1898 0.8634 0.4675
vn -0.3020 0.8751 0.3782
vn -0.1098 0.9641 -0.2419
vn 0.1455 0.9708 -0.1910
vn -0.3912 0.5066 0.7683
vn -0.4137 0.5154 0.7505
vn 0.3823 0.9187 -0.0991
vn 0.5019 0.7319 -0.4609
vn -0.3684 0.4973 0.7855
vn -0.0320 0.8725 0.4876
vn 0.5069 0.5707 -0.6461
vn 0.5539 0.8322 -0.0257
vn 0.4749 0.8250 0.3063
vn 0.6376 0.6861 0.3502
vn 0.7502 0.6544 -0.0945
vn -0.6212 0.7836 -0.0110
vn -0.7232 0.6834 0.0993
vn -0.0295 0.9665 0.2550
vn 0.0335 0.9968 -0.0730
vn -0.8944 0.4422 -0.0675
vn -0.8804 0.4743 0.0028
vn 0.0480 0.9466 -0.3189
vn 0.5173 0.7633 -0.3870
vn -0.9031 0.4057 -0.1407
vn -0.5818 0.7778 -0.2379
vn 0.7306 0.5383 -0.4201
vn -0.3558 0.7985 -0.4856
vn -0.1490 0.8044 -0.5751
vn -0.2877 0.6214 -0.7287
vn -0.4754 0.5966 -0.6466
vn 0.3202 0.7892 0.5241
vn 0.4695 0.7142 0.5191
vn 0.2138 0.9733 -0.0831
vn -0.0445 0.9983 -0.0364
vn 0.4515 0.4673 0.7602
vn 0.4890 0.4805 0.7280
vn -0.3061 0.9520 0.0079
vn -0.5815 0.6884 -0.4335
vn 0.4124 0.4527 0.7906
vn 0.1977 0.7702 0.6064
vn -0.6273 0.5524 -0.5490
vn -0.2476 0.9630 0.1061
vn -0.2826 0.9592 -0.0072
vn -0.3935 0.9140 0.0990
vn -0.3662 0.9115 0.1871
vn 0.2857 0.8972 -0.3368
vn 0.2671 0.8762 -0.4012
vn -0.0664 0.9786 -0.1946
vn -0.0481 0.9972 -0.0566
vn 0.5085 0.7153 -0.4793
vn 0.4682 0.7339 -0.4921
vn -0.0271 0.9983 0.0509
vn -0.1992 0.9558 0.2164
vn 0.5483 0.6949 -0.4653
vn 0.3092 0.9128 -0.2668
vn -0.3257 0.8965 0.3005
vn 0.3147 0.9438 0.1012
vn 0.1674 0.9607 0.2216
vn 0.3181 0.8757 0.3633
vn 0.4784 0.8556 0.1978
vn -0.3748 0.8858 -0.2735
vn -0.4370 0.8686 -0.2336
vn -0.1037 0.9945 0.0137
vn -0.0075 0.9950 -0.0995
vn -0.5653 0.7183 -0.4056
vn -0.5638 0.7484 -0.3494
vn 0.0462 0.9804 -0.1917
vn 0.3352 0.9381 -0.0876
vn -0.5644 0.6818 -0.4655
vn -0.2893 0.8926 -0.3457
vn 0.6109 0.7913 0.0250
usemtl Material
s 1
f 15/1/1 9/2/2 4/3/3 12/4/4
f 14/5/5 8/6/6 6/7/7 13/8/8
f 11/9/9 2/10/10 8/6/6 14/5/5
f 13/8/8 6/7/7 9/2/2 15/1/1
f 5/11/11 13/8/8 15/1/1 10/12/12
f 1/13/13 11/9/9 14/5/5 7/14/14
f 7/14/14 14/5/5 13/8/8 5/11/11
f 10/12/12 15/1/1 12/4/4 3/15/15
f 30/16/16 24/17/17 19/18/18 27/19/19
f 29/20/20 23/21/21 21/22/22 28/23/23
f 26/24/24 17/25/25 23/21/21 29/20/20
f 28/23/23 21/22/22 24/17/17 30/16/16
f 20/26/26 28/23/23 30/16/16 25/27/27
f 16/28/28 26/24/24 29/20/20 22/29/29
f 22/29/29 29/20/20 28/23/23 20/26/26
f 25/27/27 30/16/16 27/19/19 18/30/30
f 45/31/31 39/32/32 34/33/33 42/34/34
f 44/35/35 38/36/36 36/37/37 43/38/38
f 41/39/39 32/40/40 38/36/36 44/35/35
f 43/38/38 36/37/37 39/32/32 45/31/31
f 35/41/41 43/38/38 45/31/31 40/42/42
f 31/43/43 41/39/39 44/35/35 37/44/44
f 37/44/44 44/35/35 43/38/38 35/41/41
f 40/42/42 45/31/31 42/34/34 33/45/45
f 60/46/46 54/47/47 49/48/48 57/49/49
f 59/50/50 53/51/51 51/52/52 58/53/53
f 56/54/54 47/55/55 53/51/51 59/50/50
f 58/53/53 51/52/52 54/47/47 60/46/46
f 50/56/56 58/53/53 60/46/46 55/57/57
f 46/58/58 56/54/54 59/50/50 52/59/59
f 52/59/59 59/50/50 58/53/53 50/56/56
f 55/57/57 60/46/46 57/49/49 48/60/60
f 75/61/61 69/62/62 64/63/63 72/64/64
f 74/65/65 68/66/66 66/67/67 73/68/68
f 71/69/69 62/70/70 68/66/66 74/65/65
f 73/68/68 66/67/67 69/62/62 75/61/61
f 65/71/71 73/68/68 75/61/61 70/72/72
f 61/73/73 71/69/69 74/65/65 67/74/74
f 67/74/74 74/65/65 73/68/68 65/71/71
f 70/72/72 75/61/61 72/64/64 63/75/75
f 90/76/76 84/77/77 79/78/78 87/79/79
f 89/80/80 83/81/81 81/82/82 88/83/83
f 86/84/84 77/85/85 83/81/81 89/80/80
f 88/83/83 81/82/82 84/77/77 90/76/76
f 80/86/86 88/83/83 90/76/76 85/87/87
f 76/88/88 86/84/84 89/80/80 82/89/89
f 82/89/89 89/80/80 88/83/83 80/86/86
f 85/87/87 90/76/76 87/79/79 78/90/90
f 105/91/91 99/92/92 94/93/93 102/94/94
f 104/95/95 98/96/96 96/97/97 103/98/98
f 101/99/99 92/100/100 98/96/96 104/95/95
f 103/98/98 96/97/97 99/92/92 105/91/91
f 95/101/101 103/98/98 105/91/91 100/102/102
f 91/103/103 101/99/99 104/95/95 97/104/104
f 97/104/104 104/95/95 103/98/98 95/101/101
f 100/102/102 105/91/91 102/94/94 93/105/105
f 120/106/106 114/107/107 109/108/108 117/109/109
f 119/110/110 113/111/111 111/112/112 118/113/113
f 116/114/114 107/115/115 113/111/111 119/110/110
f 118/113/113 111/112/112 114/107/107 120/106/106
f 110/116/116 118/113/113 120/106/106 115/117/117
f 106/118/118 116/114/114 119/110/110 112/119/119
f 112/119/119 119/110/110 118/113/113 110/116/116
f 115/117/117 120/106/106 117/109/109 108/120/120
f 135/121/121 129/122/122 124/123/123 132/124/124
f 134/125/125 128/126/126 126/127/127 133/128/128
f 131/129/129 122/130/130 128/126/126 134/125/125
f 133/128/128 126/127/127 129/122/122 135/121/121
f 125/131/131 133/128/128 135/121/121 130/132/132
f 121/133/133 131/129/129 134/125/125 127/134/134
f 127/134/134 134/125/125 133/128/128 125/131/131
f 130/132/132 135/121/121 132/124/124 123/135/135
f 150/136/136 144/137/137 139/138/138 147/139/139
f 149/140/140 143/141/141 141/142/142 148/143/143
f 146/144/144 137/145/145 143/141/141 149/140/140
f 148/143/143 141/142/142 144/137/137 150/136/136
f 140/146/146 148/143/143 150/136/136 145/147/147
f 136/148/148 146/144/144 149/140/140 142/149/149
f 142/149/149 149/140/140 148/143/143 140/146/146
f 145/147/147 150/136/136 147/139/139 138/150/150
f 165/151/151 159/152/152 154/153/153 162/154/154
f 164/155/155 158/156/156 156/157/157 163/158/158
f 161/159/159 152/160/160 158/156/156 164/155/155
f 163/158/158 156/157/157 159/152/152 165/151/151
f 155/161/161 163/158/158 165/151/151 160/162/162
f 151/163/163 161/159/159 164/155/155 157/164/164
f 157/164/164 164/155/155 163/158/158 155/161/161
f 160/162/162 165/151/151 162/154/154 153/165/165
